<?xml version="1.0" encoding="UTF-8"?>
<svg id="Calque_1" data-name="Calque 1" xmlns="http://www.w3.org/2000/svg" viewBox="0 0 663 622">
  <defs>
    <style>
      .cls-1 {
        fill: #fff;
      }
    </style>
  </defs>
  <rect class="cls-1" x="410.94" y="328.44" width="116.33" height="190.3"/>
  <path class="cls-1" d="M305.87,408.14c-57.56,0-104.23-46.66-104.23-104.23s46.67-104.23,104.23-104.23c39.64,0,74.1,22.13,91.73,54.71l104.47-48.58c-12.26-24.52-36.79-61.31-73.57-85.83C248.13-.26,38.12,192.12,111.72,386.35c34.24,90.35,130.73,141.55,225.74,132.38v-115.5c-9.97,3.17-20.58,4.91-31.6,4.91Z"/>
  <rect class="cls-1" x="410.94" y="328.44" width="116.33" height="190.3"/>
  <path class="cls-1" d="M305.87,408.14c-57.56,0-104.23-46.66-104.23-104.23s46.67-104.23,104.23-104.23c39.64,0,74.1,22.13,91.73,54.71l104.47-48.58c-12.26-24.52-36.79-61.31-73.57-85.83C248.13-.26,38.12,192.12,111.72,386.35c34.24,90.35,130.73,141.55,225.74,132.38v-115.5c-9.97,3.17-20.58,4.91-31.6,4.91Z"/>
</svg>