<?xml version="1.0" encoding="UTF-8"?>
<!DOCTYPE svg PUBLIC "-//W3C//DTD SVG 1.1//EN" "http://www.w3.org/Graphics/SVG/1.1/DTD/svg11.dtd">
<svg xmlns="http://www.w3.org/2000/svg" version="1.1" width="512px" height="542px" style="shape-rendering:geometricPrecision; text-rendering:geometricPrecision; image-rendering:optimizeQuality; fill-rule:evenodd; clip-rule:evenodd" xmlns:xlink="http://www.w3.org/1999/xlink">
<g><path style="opacity:0.63" fill="#fefefe" d="M 294.5,62.5 C 295.239,62.369 295.906,62.5357 296.5,63C 302.19,69.6884 308.19,76.0217 314.5,82C 352.5,108.333 390.5,134.667 428.5,161C 432.496,165.491 434.996,170.658 436,176.5C 441.832,225.152 447.165,273.818 452,322.5C 419.575,365.014 386.909,407.347 354,449.5C 351.095,450.956 348.095,452.289 345,453.5C 344.439,452.978 343.772,452.645 343,452.5C 295.185,461.028 247.185,469.694 199,478.5C 153.314,443.432 107.814,408.099 62.5,372.5C 61.359,370.579 61.1923,368.579 62,366.5C 65.0893,356.643 68.256,346.81 71.5,337C 68.788,302.865 66.288,268.698 64,234.5C 61.9824,232.65 60.1491,230.65 58.5,228.5C 84.7597,193.405 111.593,158.738 139,124.5C 144.343,114.683 146.176,104.35 144.5,93.5C 194.669,83.4004 244.669,73.067 294.5,62.5 Z M 290.5,67.5 C 292.467,67.2606 294.301,67.5939 296,68.5C 315.627,98.0237 335.794,127.19 356.5,156C 356.167,156.333 355.833,156.667 355.5,157C 288.91,169.918 222.41,183.085 156,196.5C 153.358,163.172 150.858,129.839 148.5,96.5C 196.055,87.3228 243.388,77.6562 290.5,67.5 Z M 319.5,90.5 C 354.735,114.703 389.901,139.037 425,163.5C 430.264,211.142 434.931,258.808 439,306.5C 437.786,304.951 436.286,303.785 434.5,303C 376.472,290.794 318.472,278.461 260.5,266C 298.609,235.526 336.442,204.692 374,173.5C 374.52,171.711 374.187,170.044 373,168.5C 354.9,142.616 337.066,116.616 319.5,90.5 Z M 145.5,118.5 C 147.936,145.324 150.102,172.324 152,199.5C 152.5,200 153,200.5 153.5,201C 141.659,204.085 129.659,206.085 117.5,207C 127.335,177.662 136.668,148.162 145.5,118.5 Z M 135.5,135.5 C 128.145,160.4 120.479,185.233 112.5,210C 113.62,211.737 114.62,213.571 115.5,215.5C 113.235,221.128 111.069,226.794 109,232.5C 108.275,231.941 107.442,231.608 106.5,231.5C 105.018,233.115 103.184,234.115 101,234.5C 88.8058,232.128 76.6392,229.628 64.5,227C 87.824,196.16 111.491,165.66 135.5,135.5 Z M 244.5,183.5 C 282.678,175.131 321.011,167.797 359.5,161.5C 321.262,169.373 282.928,176.706 244.5,183.5 Z M 362.5,165.5 C 364.466,166.255 364.8,167.421 363.5,169C 324.876,199.955 286.543,231.288 248.5,263C 247.5,263.667 246.5,263.667 245.5,263C 284.69,230.636 323.69,198.136 362.5,165.5 Z M 354.5,167.5 C 317.523,198.302 280.356,228.969 243,259.5C 240.254,236.323 238.087,212.99 236.5,189.5C 275.811,182.038 315.144,174.704 354.5,167.5 Z M 368.5,169.5 C 369.803,171.757 369.136,173.59 366.5,175C 329.043,204.788 291.877,234.955 255,265.5C 254.5,265 254,264.5 253.5,264C 291.904,232.481 330.237,200.981 368.5,169.5 Z M 430.5,171.5 C 436.976,218.947 442.476,266.614 447,314.5C 445.019,312.641 444.019,310.308 444,307.5C 439.169,262.192 434.669,216.859 430.5,171.5 Z M 244.5,183.5 C 241.372,184.632 238.038,185.465 234.5,186C 233.167,187.333 231.833,188.667 230.5,190C 207.946,194.244 185.446,198.744 163,203.5C 161.225,202.73 159.725,201.563 158.5,200C 187.079,193.959 215.746,188.459 244.5,183.5 Z M 231.5,193.5 C 232.268,194.263 232.768,195.263 233,196.5C 234.347,215.013 235.847,233.513 237.5,252C 237.167,253.5 236.833,255 236.5,256.5C 212.913,251.116 189.247,246.116 165.5,241.5C 165.216,231.644 164.55,221.811 163.5,212C 163.833,210.5 164.167,209 164.5,207.5C 186.953,202.81 209.286,198.144 231.5,193.5 Z M 152.5,205.5 C 154.792,205.244 156.959,205.577 159,206.5C 159.782,216.338 160.616,226.172 161.5,236C 161.167,237.5 160.833,239 160.5,240.5C 158.356,239.047 156.523,239.38 155,241.5C 141.333,238.5 127.667,235.5 114,232.5C 115.593,226.715 117.426,220.882 119.5,215C 119.265,214.127 118.931,213.293 118.5,212.5C 129.957,210.143 141.291,207.809 152.5,205.5 Z M 107.5,235.5 C 123.137,238.828 138.804,242.161 154.5,245.5C 158.193,280.324 161.527,315.157 164.5,350C 131.84,355.943 99.1731,361.777 66.5,367.5C 79.8567,323.408 93.5233,279.408 107.5,235.5 Z M 68.5,236.5 C 79.1457,238.629 89.8123,240.629 100.5,242.5C 92.4688,270.286 83.9688,297.953 75,325.5C 72.3247,295.871 70.1581,266.204 68.5,236.5 Z M 159.5,244.5 C 184.168,249.5 208.835,254.5 233.5,259.5C 235.414,283.892 237.748,308.225 240.5,332.5C 216.327,337.918 191.993,342.585 167.5,346.5C 165.054,312.481 162.387,278.481 159.5,244.5 Z M 238.5,265.5 C 284.369,275.674 330.369,285.341 376.5,294.5C 377.842,301.031 378.175,307.531 377.5,314C 334.578,321.918 291.744,330.085 249,338.5C 245.603,336.442 243.937,333.442 244,329.5C 241.835,308.188 240.002,286.855 238.5,265.5 Z M 381.5,296.5 C 395.881,299.01 410.215,301.843 424.5,305C 410.603,307.712 396.77,310.546 383,313.5C 382.096,307.865 381.596,302.198 381.5,296.5 Z M 431.5,315.5 C 432.978,315.238 434.311,315.571 435.5,316.5C 404.358,357.476 373.025,398.309 341.5,439C 290.888,448.158 240.222,456.991 189.5,465.5C 187.494,431.427 184.828,397.427 181.5,363.5C 264.898,347.27 348.231,331.27 431.5,315.5 Z M 441.5,315.5 C 443.463,316.96 445.296,318.627 447,320.5C 447.315,321.908 446.982,323.241 446,324.5C 413.951,364.88 382.285,405.547 351,446.5C 349.167,444.667 347.333,442.833 345.5,441C 377.332,399.006 409.332,357.172 441.5,315.5 Z M 237.5,337.5 C 239.199,337.34 240.866,337.506 242.5,338C 243.878,339.713 245.545,341.047 247.5,342C 223.935,346.38 200.435,350.88 177,355.5C 175.075,354.12 173.241,352.62 171.5,351C 186.536,347.574 201.703,344.408 217,341.5C 217.772,341.645 218.439,341.978 219,342.5C 225.149,340.456 231.315,338.789 237.5,337.5 Z M 165.5,353.5 C 167.783,353.608 169.783,354.441 171.5,356C 138.664,362.167 105.831,368.334 73,374.5C 71.2741,374.054 69.7741,373.221 68.5,372C 100.699,365.853 133.032,359.686 165.5,353.5 Z M 167.5,360.5 C 169.792,360.244 171.959,360.577 174,361.5C 176.597,393.996 178.93,426.663 181,459.5C 145.895,432.696 111.062,405.529 76.5,378C 107.027,372.46 137.361,366.627 167.5,360.5 Z M 339.5,443.5 C 342.439,443.918 344.772,445.418 346.5,448C 296.907,457.099 247.24,465.432 197.5,473C 196.167,471.667 194.833,470.333 193.5,469C 242.36,460.802 291.026,452.302 339.5,443.5 Z"/></g>
</svg>
