<?xml version="1.0" encoding="UTF-8"?>
<!DOCTYPE svg PUBLIC "-//W3C//DTD SVG 1.1//EN" "http://www.w3.org/Graphics/SVG/1.1/DTD/svg11.dtd">
<svg xmlns="http://www.w3.org/2000/svg" version="1.1" width="5298px" height="5187px" style="shape-rendering:geometricPrecision; text-rendering:geometricPrecision; image-rendering:optimizeQuality; fill-rule:evenodd; clip-rule:evenodd" xmlns:xlink="http://www.w3.org/1999/xlink">
<g><path style="opacity:0.944" fill="#221f1f" d="M 2860.5,1106.5 C 2863.9,1106.18 2867.23,1106.51 2870.5,1107.5C 2889.71,1131.54 2910.55,1154.21 2933,1175.5C 2937.01,1181 2941.17,1186.33 2945.5,1191.5C 2953.99,1200.5 2961.99,1210 2969.5,1220C 3064.78,1283.97 3159.44,1348.64 3253.5,1414C 3350.63,1479.65 3447.3,1545.82 3543.5,1612.5C 3574.96,1632.55 3605.63,1653.55 3635.5,1675.5C 3646.97,1682.25 3657.97,1689.75 3668.5,1698C 3672.19,1699.1 3675.19,1701.1 3677.5,1704C 3706.98,1724.83 3736.98,1744.83 3767.5,1764C 3768.17,1765 3768.83,1766 3769.5,1767C 3782.8,1775 3795.46,1783.67 3807.5,1793C 3814.69,1797.23 3821.52,1801.73 3828,1806.5C 3843.07,1827.87 3858.24,1849.2 3873.5,1870.5C 3875.65,1877.02 3877.32,1883.68 3878.5,1890.5C 3914.34,2193.59 3949.68,2496.76 3984.5,2800C 3988.78,2844.09 3993.78,2888.09 3999.5,2932C 4000.4,2938.49 4000.57,2944.99 4000,2951.5C 3898.87,3078.7 3797.87,3206.37 3697,3334.5C 3595.08,3462.38 3493.75,3590.38 3393,3718.5C 3353.73,3767.75 3314.57,3816.91 3275.5,3866C 2903.38,3930.02 2531.21,3993.85 2159,4057.5C 2155.61,4057.2 2152.45,4056.2 2149.5,4054.5C 2129.16,4038.49 2108.83,4022.49 2088.5,4006.5C 2085.95,4004.78 2083.28,4003.28 2080.5,4002C 2073.31,3996.24 2066.31,3990.24 2059.5,3984C 2042.63,3972.4 2026.3,3960.06 2010.5,3947C 1998.84,3939.48 1987.84,3930.98 1977.5,3921.5C 1975.27,3920.1 1972.94,3918.93 1970.5,3918C 1968.1,3915 1965.43,3912.33 1962.5,3910C 1937.97,3891.71 1913.3,3873.38 1888.5,3855C 1877.8,3845.65 1866.46,3836.98 1854.5,3829C 1851.57,3826.67 1848.9,3824 1846.5,3821C 1838.33,3816.08 1830.67,3810.41 1823.5,3804C 1820.67,3803.36 1818.67,3801.7 1817.5,3799C 1809.16,3792.68 1800.49,3786.68 1791.5,3781C 1789.1,3778 1786.43,3775.33 1783.5,3773C 1775.13,3766.63 1766.46,3760.63 1757.5,3755C 1756.74,3753.49 1755.74,3752.15 1754.5,3751C 1715.71,3722.42 1677.37,3693.08 1639.5,3663C 1595.26,3630.38 1551.59,3597.05 1508.5,3563C 1496.84,3555.48 1485.84,3546.98 1475.5,3537.5C 1473.27,3536.1 1470.94,3534.93 1468.5,3534C 1466.1,3531 1463.43,3528.33 1460.5,3526C 1435.93,3507.7 1411.26,3489.36 1386.5,3471C 1375.8,3461.65 1364.46,3452.98 1352.5,3445C 1349.57,3442.67 1346.9,3440 1344.5,3437C 1335.56,3431.39 1326.89,3425.39 1318.5,3419C 1317.74,3417.49 1316.74,3416.15 1315.5,3415C 1307.16,3408.68 1298.49,3402.68 1289.5,3397C 1287.1,3394 1284.43,3391.33 1281.5,3389C 1273.13,3382.63 1264.46,3376.63 1255.5,3371C 1254.74,3369.49 1253.74,3368.15 1252.5,3367C 1244.06,3360.6 1235.39,3354.44 1226.5,3348.5C 1205.81,3332.06 1184.97,3315.73 1164,3299.5C 1163.29,3295.13 1163.46,3290.8 1164.5,3286.5C 1189.11,3212.41 1212.94,3138.07 1236,3063.5C 1236.44,3061.92 1237.27,3060.59 1238.5,3059.5C 1236.83,3055.74 1236,3051.74 1236,3047.5C 1232.2,2985.61 1227.7,2923.78 1222.5,2862C 1211.78,2702.45 1200.44,2542.95 1188.5,2383.5C 1187.3,2363.84 1186.3,2344.17 1185.5,2324.5C 1184.45,2324.65 1183.45,2324.48 1182.5,2324C 1175.7,2316.07 1168.03,2309.07 1159.5,2303C 1155.35,2297.68 1150.68,2292.85 1145.5,2288.5C 1144.17,2285.17 1144.17,2281.83 1145.5,2278.5C 1343.45,2028.91 1540.95,1779.24 1738,1529.5C 1750.13,1493.65 1761.97,1457.65 1773.5,1421.5C 1773.83,1418.17 1774.17,1414.83 1774.5,1411.5C 1772.27,1388.71 1770.6,1365.88 1769.5,1343C 1766.09,1336.15 1767.09,1330.15 1772.5,1325C 1774.38,1323.91 1776.38,1323.08 1778.5,1322.5C 1821.99,1314.48 1865.32,1305.81 1908.5,1296.5C 2154.52,1247.82 2400.52,1199.16 2646.5,1150.5C 2708.14,1137.73 2769.81,1125.06 2831.5,1112.5C 2840.01,1111.22 2848.51,1109.89 2857,1108.5C 2858.68,1108.39 2859.85,1107.73 2860.5,1106.5 Z M 2853.5,1127.5 C 2856.25,1127.19 2858.91,1127.52 2861.5,1128.5C 2952.2,1256.61 3042.37,1384.94 3132,1513.5C 3133.07,1514.62 3134.24,1515.62 3135.5,1516.5C 3147.81,1534.62 3160.47,1552.62 3173.5,1570.5C 3181.31,1583.17 3189.81,1595.17 3199,1606.5C 3236.76,1659.81 3274.1,1713.48 3311,1767.5C 3314.03,1769.73 3315.86,1772.73 3316.5,1776.5C 3307.49,1777.72 3298.49,1779.06 3289.5,1780.5C 2807.34,1873.67 2325.01,1966 1842.5,2057.5C 1826.36,1832.1 1809.36,1606.77 1791.5,1381.5C 1790.52,1367.85 1789.85,1354.18 1789.5,1340.5C 2038.21,1291.38 2286.87,1242.05 2535.5,1192.5C 2640.32,1170.67 2745.32,1149.67 2850.5,1129.5C 2852.03,1129.36 2853.03,1128.69 2853.5,1127.5 Z M 3005.5,1268.5 C 3021.18,1278.36 3036.51,1288.86 3051.5,1300C 3145.26,1363.06 3238.59,1426.89 3331.5,1491.5C 3425.27,1554.78 3518.6,1618.61 3611.5,1683C 3671.06,1722.6 3730.06,1762.94 3788.5,1804C 3796.28,1808.88 3803.95,1813.71 3811.5,1818.5C 3846.66,2155.03 3881.99,2491.53 3917.5,2828C 3918.53,2837.49 3919.03,2846.99 3919,2856.5C 3910.88,2849.04 3903.38,2841.04 3896.5,2832.5C 3892.4,2829.61 3888.73,2826.27 3885.5,2822.5C 3884.27,2821.72 3882.94,2821.22 3881.5,2821C 3453.08,2732.38 3024.74,2643.54 2596.5,2554.5C 2630.9,2526.36 2665.56,2498.86 2700.5,2472C 2796.33,2394.65 2893,2317.65 2990.5,2241C 3090.87,2160.06 3192.2,2079.39 3294.5,1999C 3295.74,1997.85 3296.74,1996.51 3297.5,1995C 3307.79,1987.34 3318.13,1979.67 3328.5,1972C 3330.9,1969 3333.57,1966.33 3336.5,1964C 3338.5,1963 3340.5,1962 3342.5,1961C 3345.43,1958.67 3348.1,1956 3350.5,1953C 3360.87,1945.33 3371.21,1937.66 3381.5,1930C 3383.9,1927 3386.57,1924.33 3389.5,1922C 3393.37,1920.72 3396.37,1918.39 3398.5,1915C 3401.06,1914.77 3402.73,1913.44 3403.5,1911C 3412.05,1904.28 3420.71,1897.78 3429.5,1891.5C 3432.06,1889.14 3434.23,1886.47 3436,1883.5C 3436.85,1879.96 3436.35,1876.62 3434.5,1873.5C 3374.4,1790.68 3315.23,1707.02 3257,1622.5C 3254.56,1619.27 3251.89,1616.27 3249,1613.5C 3237.39,1595.23 3225.39,1577.23 3213,1559.5C 3210.11,1556.73 3207.44,1553.73 3205,1550.5C 3182.23,1516.63 3158.73,1483.29 3134.5,1450.5C 3131.29,1444.78 3127.45,1439.44 3123,1434.5C 3122.06,1432.06 3120.89,1429.72 3119.5,1427.5C 3087.5,1383.78 3056,1339.78 3025,1295.5C 3024,1294.83 3023,1294.17 3022,1293.5C 3016.64,1284.99 3011.14,1276.66 3005.5,1268.5 Z M 1777.5,1471.5 C 1778.8,1473.22 1779.47,1475.39 1779.5,1478C 1793.72,1675.88 1808.56,1873.72 1824,2071.5C 1824.4,2072.87 1824.9,2074.21 1825.5,2075.5C 1830.35,2079.85 1835.01,2084.35 1839.5,2089C 1842.26,2089.26 1843.93,2090.76 1844.5,2093.5C 1751.69,2110.8 1658.69,2127.14 1565.5,2142.5C 1564.5,2142.17 1563.5,2141.83 1562.5,2141.5C 1563.32,2139.22 1563.99,2136.88 1564.5,2134.5C 1621.24,1958.5 1678.24,1782.5 1735.5,1606.5C 1749.66,1561.53 1763.66,1516.53 1777.5,1471.5 Z M 1719.5,1585.5 C 1719.64,1583.66 1720.31,1583.33 1721.5,1584.5C 1721.04,1585.3 1720.38,1585.63 1719.5,1585.5 Z M 1719.5,1585.5 C 1718.83,1589.85 1718,1594.18 1717,1598.5C 1711.23,1613.9 1706.23,1629.57 1702,1645.5C 1699.83,1650.83 1697.67,1656.17 1695.5,1661.5C 1644.76,1822.69 1593.09,1983.69 1540.5,2144.5C 1538.74,2149.72 1538.24,2155.06 1539,2160.5C 1545.84,2167.12 1552.01,2174.45 1557.5,2182.5C 1558.02,2183.61 1558.36,2184.77 1558.5,2186C 1556.27,2192.75 1554.27,2199.58 1552.5,2206.5C 1540.11,2241.38 1527.11,2276.04 1513.5,2310.5C 1512.28,2312.24 1510.62,2313.24 1508.5,2313.5C 1499.4,2310.41 1490.07,2309.25 1480.5,2310C 1478.27,2311.23 1476.77,2313.06 1476,2315.5C 1473.58,2321.67 1471.75,2328 1470.5,2334.5C 1371.18,2315.45 1271.85,2296.28 1172.5,2277C 1355.15,2046.45 1537.48,1815.95 1719.5,1585.5 Z M 3325.5,1793.5 C 3327.2,1793.34 3328.87,1793.51 3330.5,1794C 3334.12,1799.91 3338.46,1805.25 3343.5,1810C 3339.57,1811.15 3335.57,1812.32 3331.5,1813.5C 3026.32,1870.78 2721.16,1928.11 2416,1985.5C 2413.98,1986.51 2412.14,1987.85 2410.5,1989.5C 2409.82,1996.39 2409.15,2003.22 2408.5,2010C 2248.99,2040.74 2089.49,2071.57 1930,2102.5C 1917.01,2104.31 1904.18,2106.47 1891.5,2109C 1889.4,2106.23 1886.73,2104.23 1883.5,2103C 1877.5,2096.67 1871.5,2090.33 1865.5,2084C 1863.58,2083.64 1861.91,2082.81 1860.5,2081.5C 1858.83,2079.17 1856.83,2077.17 1854.5,2075.5C 2345.06,1982.05 2835.39,1888.05 3325.5,1793.5 Z M 3355.5,1829.5 C 3356.68,1829.28 3357.68,1829.61 3358.5,1830.5C 3363.54,1836.86 3368.54,1843.2 3373.5,1849.5C 3298.56,1910.62 3223.23,1971.12 3147.5,2031C 3124.14,2050.92 3100.14,2070.26 3075.5,2089C 3040.79,2117.74 3005.46,2146.08 2969.5,2174C 2968.74,2175.51 2967.74,2176.85 2966.5,2178C 2933.49,2203.36 2901.16,2229.36 2869.5,2256C 2858.35,2263.76 2847.68,2272.26 2837.5,2281.5C 2834.83,2283.18 2832.16,2284.84 2829.5,2286.5C 2823.23,2291.79 2817.23,2297.29 2811.5,2303C 2807.25,2304.61 2803.59,2306.95 2800.5,2310C 2770.45,2335.38 2739.78,2360.05 2708.5,2384C 2707.26,2385.15 2706.26,2386.49 2705.5,2388C 2702.12,2390.69 2698.46,2393.03 2694.5,2395C 2693.4,2397.76 2691.4,2399.43 2688.5,2400C 2677.96,2410.02 2666.63,2419.19 2654.5,2427.5C 2618.77,2457.69 2582.1,2487.19 2544.5,2516C 2543.73,2518.44 2542.06,2519.77 2539.5,2520C 2538.26,2521.15 2537.26,2522.49 2536.5,2524C 2532.23,2525.64 2528.56,2527.98 2525.5,2531C 2523.47,2534.77 2520.31,2536.93 2516,2537.5C 2505.6,2536.35 2495.44,2534.18 2485.5,2531C 2568.26,2464.11 2651.26,2397.44 2734.5,2331C 2764.47,2305.72 2795.13,2281.06 2826.5,2257C 2827.74,2255.85 2828.74,2254.51 2829.5,2253C 2832.88,2250.31 2836.54,2247.97 2840.5,2246C 2841.74,2244.85 2842.74,2243.51 2843.5,2242C 2874.78,2218.05 2905.45,2193.38 2935.5,2168C 2966.9,2143.9 2997.56,2119.24 3027.5,2094C 3031.18,2091.5 3034.84,2089 3038.5,2086.5C 3052.75,2074.08 3067.42,2062.24 3082.5,2051C 3083.26,2049.49 3084.26,2048.15 3085.5,2047C 3088.93,2044.44 3092.59,2042.11 3096.5,2040C 3097.6,2037.24 3099.6,2035.57 3102.5,2035C 3116.13,2024.04 3129.46,2012.71 3142.5,2001C 3152.88,1993.33 3163.21,1985.66 3173.5,1978C 3174.74,1976.85 3175.74,1975.51 3176.5,1974C 3222.34,1938.23 3267.67,1901.73 3312.5,1864.5C 3315.8,1863.03 3318.46,1860.86 3320.5,1858C 3323.4,1857.43 3325.4,1855.76 3326.5,1853C 3331.99,1848.75 3337.66,1844.75 3343.5,1841C 3347.77,1837.38 3351.77,1833.55 3355.5,1829.5 Z M 3315.5,1836.5 C 3313.74,1839.62 3311.08,1841.79 3307.5,1843C 3275.83,1869.66 3243.49,1895.66 3210.5,1921C 3209.26,1922.15 3208.26,1923.49 3207.5,1925C 3204.12,1927.69 3200.46,1930.03 3196.5,1932C 3195.4,1934.76 3193.4,1936.43 3190.5,1937C 3173.78,1951.8 3156.45,1965.8 3138.5,1979C 3137.74,1980.51 3136.74,1981.85 3135.5,1983C 3125.12,1990.67 3114.79,1998.34 3104.5,2006C 3103.74,2007.51 3102.74,2008.85 3101.5,2010C 3079.83,2026.35 3058.83,2043.35 3038.5,2061C 3015.87,2077.98 2993.87,2095.64 2972.5,2114C 2969.6,2114.57 2967.6,2116.24 2966.5,2119C 2962.21,2121.31 2958.21,2123.97 2954.5,2127C 2910.1,2164.06 2865.1,2200.4 2819.5,2236C 2818.26,2237.15 2817.26,2238.49 2816.5,2240C 2806.25,2247.66 2795.92,2255.33 2785.5,2263C 2783.83,2266.34 2781.16,2268.51 2777.5,2269.5C 2764.14,2280.07 2751.14,2291.07 2738.5,2302.5C 2730.06,2308.61 2721.72,2314.78 2713.5,2321C 2690.12,2341.04 2666.12,2360.38 2641.5,2379C 2640.74,2380.51 2639.74,2381.85 2638.5,2383C 2628.17,2390.67 2617.83,2398.33 2607.5,2406C 2601.77,2411.71 2595.77,2417.21 2589.5,2422.5C 2580.67,2428.83 2572.01,2435.33 2563.5,2442C 2562.74,2443.51 2561.74,2444.85 2560.5,2446C 2556.56,2447.94 2552.9,2450.27 2549.5,2453C 2523.99,2474.83 2497.82,2496 2471,2516.5C 2457.46,2347.5 2443.96,2178.5 2430.5,2009.5C 2430.64,2006.96 2431.31,2004.62 2432.5,2002.5C 2726.86,1947.16 3021.19,1891.83 3315.5,1836.5 Z M 3835.5,1852.5 C 3838.84,1855.85 3841.84,1859.51 3844.5,1863.5C 3847.55,1867.49 3850.05,1871.82 3852,1876.5C 3853,1877.17 3854,1877.83 3855,1878.5C 3856.88,1884.88 3858.38,1891.38 3859.5,1898C 3891.92,2172.28 3923.92,2446.61 3955.5,2721C 3962.97,2786.84 3970.14,2852.68 3977,2918.5C 3974.98,2916.47 3973.31,2914.14 3972,2911.5C 3967,2906.83 3962,2902.17 3957,2897.5C 3956.67,2896.5 3956.33,2895.5 3956,2894.5C 3951.71,2890.51 3947.37,2886.51 3943,2882.5C 3907.81,2549.16 3872.64,2215.83 3837.5,1882.5C 3836.58,1872.51 3835.91,1862.51 3835.5,1852.5 Z M 3396.5,1856.5 C 3402.63,1863.29 3407.97,1870.63 3412.5,1878.5C 3269.99,1992.83 3126.99,2106.66 2983.5,2220C 2878.67,2304.59 2772.67,2388.92 2665.5,2473C 2664.33,2475.7 2662.33,2477.36 2659.5,2478C 2655.64,2481.1 2651.98,2484.43 2648.5,2488C 2641.06,2492.38 2634.39,2497.72 2628.5,2504C 2623.17,2507.67 2617.83,2511.33 2612.5,2515C 2611.26,2516.15 2610.26,2517.49 2609.5,2519C 2605.79,2522.03 2601.79,2524.69 2597.5,2527C 2596.73,2529.44 2595.06,2530.77 2592.5,2531C 2591.26,2532.15 2590.26,2533.49 2589.5,2535C 2585.52,2537 2581.86,2539.34 2578.5,2542C 2576.35,2545.61 2573.18,2547.78 2569,2548.5C 2560.42,2547.16 2551.92,2545.49 2543.5,2543.5C 2635.68,2468.49 2728.35,2393.99 2821.5,2320C 2822.74,2318.85 2823.74,2317.51 2824.5,2316C 2834.83,2308.33 2845.17,2300.67 2855.5,2293C 2857.74,2289.89 2860.4,2287.22 2863.5,2285C 2865.27,2283.56 2867.27,2282.56 2869.5,2282C 2875.28,2276.27 2881.28,2270.77 2887.5,2265.5C 2896.32,2259.18 2904.99,2252.68 2913.5,2246C 2914.74,2244.85 2915.74,2243.51 2916.5,2242C 2920.44,2240.06 2924.1,2237.73 2927.5,2235C 2928.26,2233.49 2929.26,2232.15 2930.5,2231C 2963.48,2205.68 2995.81,2179.68 3027.5,2153C 3040.77,2143.39 3053.44,2133.06 3065.5,2122C 3069.75,2119.76 3073.75,2117.09 3077.5,2114C 3080.43,2111.67 3083.1,2109 3085.5,2106C 3087.73,2105.44 3089.73,2104.44 3091.5,2103C 3094.43,2100.67 3097.1,2098 3099.5,2095C 3112.58,2085.42 3125.25,2075.26 3137.5,2064.5C 3149.61,2056.22 3160.94,2047.05 3171.5,2037C 3181.88,2029.33 3192.21,2021.66 3202.5,2014C 3203.26,2012.49 3204.26,2011.15 3205.5,2010C 3269.61,1959.39 3333.27,1908.23 3396.5,1856.5 Z M 2408.5,2029.5 C 2409.83,2029.5 2411.17,2029.5 2412.5,2029.5C 2425.07,2188.52 2437.57,2347.52 2450,2506.5C 2444.21,2501.54 2439.38,2495.87 2435.5,2489.5C 2433.31,2486.9 2430.64,2485.07 2427.5,2484C 2259.68,2449.08 2091.68,2414.92 1923.5,2381.5C 1921.16,2380.66 1918.83,2379.83 1916.5,2379C 1909.57,2295.24 1902.9,2211.4 1896.5,2127.5C 1942.18,2119.28 1987.85,2110.94 2033.5,2102.5C 2158.52,2077.7 2283.52,2053.37 2408.5,2029.5 Z M 1858.5,2110.5 C 1860.86,2110.34 1863.19,2110.5 1865.5,2111C 1869,2114.5 1872.5,2118 1876,2121.5C 1882.77,2205.73 1889.61,2289.89 1896.5,2374C 1886.33,2373.55 1876.33,2371.88 1866.5,2369C 1862.17,2368.33 1857.83,2368.33 1853.5,2369C 1852.84,2370.49 1851.84,2371.65 1850.5,2372.5C 1849.53,2374.4 1849.2,2376.4 1849.5,2378.5C 1816.78,2372.02 1783.95,2366.02 1751,2360.5C 1695.75,2349.86 1640.59,2338.86 1585.5,2327.5C 1567.82,2324.49 1550.15,2321.49 1532.5,2318.5C 1533.11,2314.58 1534.11,2310.74 1535.5,2307C 1539.81,2296.89 1543.97,2286.72 1548,2276.5C 1557.91,2249.45 1567.41,2222.28 1576.5,2195C 1577.79,2190.56 1578.29,2186.06 1578,2181.5C 1574.31,2175.29 1570.47,2169.12 1566.5,2163C 1582.42,2159.51 1598.42,2156.34 1614.5,2153.5C 1692.5,2140.17 1770.5,2126.83 1848.5,2113.5C 1852.01,2112.66 1855.35,2111.66 1858.5,2110.5 Z M 1188.5,2300.5 C 1264.27,2314.53 1339.93,2329.2 1415.5,2344.5C 1431.6,2346.74 1447.6,2349.41 1463.5,2352.5C 1462.63,2356.98 1461.3,2361.31 1459.5,2365.5C 1458.53,2364.51 1457.37,2363.84 1456,2363.5C 1373.51,2346.72 1291.01,2330.06 1208.5,2313.5C 1204.85,2312.23 1201.18,2311.06 1197.5,2310C 1194.27,2306.94 1191.27,2303.78 1188.5,2300.5 Z M 1491.5,2329.5 C 1610.69,2353.11 1730.02,2376.11 1849.5,2398.5C 1870.8,2648.1 1891.63,2897.76 1912,3147.5C 1913.01,3150.1 1914.85,3151.94 1917.5,3153C 1905.74,3155.78 1893.9,3158.28 1882,3160.5C 1654.35,3200.17 1426.68,3239.83 1199,3279.5C 1195.32,3280.6 1191.65,3281.6 1188,3282.5C 1187.5,3280.47 1187.67,3278.47 1188.5,3276.5C 1200.75,3241.51 1212.08,3206.18 1222.5,3170.5C 1255.39,3069.6 1288.05,2968.77 1320.5,2868C 1326.02,2847.48 1332.52,2827.31 1340,2807.5C 1355.96,2758 1371.46,2708.33 1386.5,2658.5C 1388.35,2653.43 1390.35,2648.43 1392.5,2643.5C 1407.66,2592.95 1423.33,2542.62 1439.5,2492.5C 1454.65,2446.93 1469.65,2401.26 1484.5,2355.5C 1486.86,2346.8 1489.19,2338.13 1491.5,2329.5 Z M 1205.5,2332.5 C 1287.83,2349.11 1370.16,2365.95 1452.5,2383C 1452.96,2383.41 1453.29,2383.91 1453.5,2384.5C 1387.02,2592.8 1320.52,2801.14 1254,3009.5C 1251.13,2979.86 1248.63,2950.2 1246.5,2920.5C 1232.69,2724.5 1219.02,2528.5 1205.5,2332.5 Z M 1868.5,2389.5 C 2049.39,2427.04 2230.39,2464.04 2411.5,2500.5C 2413.04,2500.79 2414.38,2501.46 2415.5,2502.5C 2417.24,2515.64 2418.9,2528.81 2420.5,2542C 2435.4,2706.55 2450.73,2871.05 2466.5,3035.5C 2460.8,3035.79 2455.13,3036.46 2449.5,3037.5C 2293.12,3065.99 2136.79,3094.66 1980.5,3123.5C 1963.82,3126.18 1947.15,3128.84 1930.5,3131.5C 1910.49,2884.07 1889.83,2636.74 1868.5,2389.5 Z M 2438.5,2525.5 C 2440.02,2525.51 2441.18,2526.18 2442,2527.5C 2447.21,2533.04 2452.04,2538.87 2456.5,2545C 2457.5,2545.33 2458.5,2545.67 2459.5,2546C 2785.84,2613.14 3112,2680.97 3438,2749.5C 3445.12,2750.92 3452.28,2751.92 3459.5,2752.5C 3464.56,2800.15 3469.56,2847.82 3474.5,2895.5C 3186.65,2947.89 2898.82,3000.56 2611,3053.5C 2582.29,3059.06 2553.62,3064.73 2525,3070.5C 2512.68,3060.92 2500.84,3050.75 2489.5,3040C 2488.55,3039.52 2487.55,3039.35 2486.5,3039.5C 2485.71,3024.32 2484.71,3009.16 2483.5,2994C 2468.12,2837.86 2453.12,2681.69 2438.5,2525.5 Z M 3479.5,2758.5 C 3479.92,2757.88 3480.58,2757.54 3481.5,2757.5C 3596.75,2781.98 3712.09,2806.15 3827.5,2830C 3718.21,2851.19 3608.71,2871.35 3499,2890.5C 3497.34,2890.68 3496.01,2891.34 3495,2892.5C 3490.33,2847.65 3485.17,2802.98 3479.5,2758.5 Z M 3873.5,2841.5 C 3875.2,2841.34 3876.87,2841.51 3878.5,2842C 3879.92,2845.25 3881.92,2848.08 3884.5,2850.5C 3876.62,2851.94 3868.79,2853.6 3861,2855.5C 3745.28,2876.32 3629.61,2897.32 3514,2918.5C 3512.28,2918.05 3510.78,2917.21 3509.5,2916C 3508.53,2913.37 3506.86,2911.37 3504.5,2910C 3614.84,2889.06 3725.34,2868.89 3836,2849.5C 3848.68,2847.05 3861.18,2844.39 3873.5,2841.5 Z M 3898.5,2867.5 C 3899.87,2867.34 3901.21,2867.51 3902.5,2868C 3903.26,2869.51 3904.26,2870.85 3905.5,2872C 3898.77,2873.18 3892.1,2874.68 3885.5,2876.5C 3771.02,2897.62 3656.52,2918.62 3542,2939.5C 3537.86,2940.24 3533.7,2940.57 3529.5,2940.5C 3529.7,2938.61 3529.04,2937.11 3527.5,2936C 3531.66,2934.88 3535.82,2933.72 3540,2932.5C 3656.03,2912.02 3772.03,2891.35 3888,2870.5C 3891.63,2869.46 3895.13,2868.46 3898.5,2867.5 Z M 3900.5,2893.5 C 3900.29,2894.92 3899.79,2896.26 3899,2897.5C 3761,3073.59 3624,3249.25 3488,3424.5C 3482.92,3430.51 3477.75,3436.51 3472.5,3442.5C 3468.06,3448.42 3463.9,3454.42 3460,3460.5C 3458.85,3461.74 3457.51,3462.74 3456,3463.5C 3449,3473.17 3442,3482.83 3435,3492.5C 3429.92,3498.51 3424.75,3504.51 3419.5,3510.5C 3416.87,3515.02 3414.04,3519.36 3411,3523.5C 3408.67,3526.43 3406,3529.1 3403,3531.5C 3399.96,3535.64 3397.13,3539.98 3394.5,3544.5C 3389.25,3550.49 3384.08,3556.49 3379,3562.5C 3372,3572.17 3365,3581.83 3358,3591.5C 3355,3593.9 3352.33,3596.57 3350,3599.5C 3346.96,3603.64 3344.13,3607.98 3341.5,3612.5C 3336.25,3618.49 3331.08,3624.49 3326,3630.5C 3317.78,3642.5 3309.11,3654.17 3300,3665.5C 3299,3666.17 3298,3666.83 3297,3667.5C 3289.96,3677.2 3282.96,3686.86 3276,3696.5C 3250.76,3727.55 3225.92,3759.22 3201.5,3791.5C 3194.21,3793.17 3186.87,3794.83 3179.5,3796.5C 2816.46,3857.09 2453.46,3917.75 2090.5,3978.5C 2089.79,3960.15 2088.79,3941.82 2087.5,3923.5C 2078.88,3821.89 2070.88,3720.22 2063.5,3618.5C 2052.71,3490.84 2042.04,3363.17 2031.5,3235.5C 2619.79,3127.4 3208.12,3019.4 3796.5,2911.5C 3831.28,2905.96 3865.94,2899.96 3900.5,2893.5 Z M 3926.5,2894.5 C 3929.79,2896.29 3932.29,2898.96 3934,2902.5C 3948.77,2916.94 3963.27,2931.77 3977.5,2947C 3957.39,2973.77 3936.56,2999.94 3915,3025.5C 3906.77,3037.52 3898.1,3049.18 3889,3060.5C 3869,3084.09 3849.67,3108.43 3831,3133.5C 3814.62,3152.93 3798.95,3172.59 3784,3192.5C 3776.31,3200.87 3769.31,3209.87 3763,3219.5C 3744.66,3241.13 3726.99,3263.46 3710,3286.5C 3707.56,3287.27 3706.23,3288.94 3706,3291.5C 3701.67,3296.17 3697.33,3300.83 3693,3305.5C 3687.92,3313.95 3682.26,3321.95 3676,3329.5C 3671.72,3333.63 3667.72,3337.96 3664,3342.5C 3646.99,3365.61 3629.33,3387.94 3611,3409.5C 3610.43,3412.4 3608.76,3414.4 3606,3415.5C 3602.96,3419.64 3600.13,3423.98 3597.5,3428.5C 3588.91,3438.53 3580.41,3448.53 3572,3458.5C 3571.67,3459.5 3571.33,3460.5 3571,3461.5C 3502.53,3547.1 3434.53,3633.1 3367,3719.5C 3347.36,3743.11 3328.36,3767.11 3310,3791.5C 3307.67,3794.43 3305,3797.1 3302,3799.5C 3293.77,3811.51 3285.11,3823.17 3276,3834.5C 3273.33,3837.17 3270.67,3839.83 3268,3842.5C 3251.83,3828.33 3235.67,3814.17 3219.5,3800C 3266.97,3740.18 3313.8,3680.02 3360,3619.5C 3362.33,3617.17 3364.67,3614.83 3367,3612.5C 3372.67,3604.5 3378.33,3596.5 3384,3588.5C 3387.72,3583.96 3391.72,3579.63 3396,3575.5C 3409.66,3557.24 3423.33,3538.91 3437,3520.5C 3439.33,3517.57 3442,3514.9 3445,3512.5C 3452,3502.83 3459,3493.17 3466,3483.5C 3471.08,3477.49 3476.25,3471.49 3481.5,3465.5C 3484.13,3460.98 3486.96,3456.64 3490,3452.5C 3493,3450.1 3495.67,3447.43 3498,3444.5C 3505,3434.83 3512,3425.17 3519,3415.5C 3524.08,3409.49 3529.25,3403.49 3534.5,3397.5C 3538.08,3391.65 3542.25,3386.31 3547,3381.5C 3554.71,3369.77 3563.05,3358.43 3572,3347.5C 3574.33,3344.57 3577,3341.9 3580,3339.5C 3584.89,3331.5 3590.22,3323.83 3596,3316.5C 3597.51,3315.74 3598.85,3314.74 3600,3313.5C 3607.71,3301.77 3616.05,3290.43 3625,3279.5C 3627.33,3276.57 3630,3273.9 3633,3271.5C 3636.04,3267.36 3638.87,3263.02 3641.5,3258.5C 3646.76,3252.45 3651.92,3246.45 3657,3240.5C 3665.21,3228.52 3673.88,3216.86 3683,3205.5C 3764.23,3102.07 3845.4,2998.41 3926.5,2894.5 Z M 3475.5,2914.5 C 3477.86,2914.34 3480.19,2914.5 3482.5,2915C 3483.78,2917.4 3485.61,2919.24 3488,2920.5C 3488.48,2921.45 3488.65,2922.45 3488.5,2923.5C 3469.35,2926.49 3450.19,2929.49 3431,2932.5C 3139.61,2986.02 2848.11,3039.02 2556.5,3091.5C 2553.5,3092.14 2550.5,3092.3 2547.5,3092C 2546.07,3090.11 2544.4,3088.45 2542.5,3087C 2545.22,3086.35 2547.88,3085.51 2550.5,3084.5C 2844.49,3030.83 3138.49,2977.17 3432.5,2923.5C 3447.02,2920.81 3461.36,2917.81 3475.5,2914.5 Z M 3502.5,2939.5 C 3505.12,2940.65 3507.12,2942.48 3508.5,2945C 3198.05,3002.1 2887.55,3058.94 2577,3115.5C 2575.83,3115.33 2574.67,3115.17 2573.5,3115C 2571.72,3112.76 2569.72,3110.76 2567.5,3109C 2879.35,3052.74 3191.01,2996.24 3502.5,2939.5 Z M 2472.5,3052.5 C 2490.04,3066.45 2507.04,3081.12 2523.5,3096.5C 2513.98,3098.38 2504.48,3100.38 2495,3102.5C 2329.28,3131.62 2163.78,3161.62 1998.5,3192.5C 1981.16,3177.89 1963.5,3163.73 1945.5,3150C 1947.83,3149.17 1950.16,3148.34 1952.5,3147.5C 2122.74,3117.09 2292.91,3086.43 2463,3055.5C 2466.32,3054.56 2469.48,3053.56 2472.5,3052.5 Z M 2539.5,3113.5 C 2543.85,3114.12 2547.19,3116.28 2549.5,3120C 2527.15,3124.39 2504.82,3128.89 2482.5,3133.5C 2338.52,3159.14 2194.69,3185.47 2051,3212.5C 2042.87,3214.05 2034.71,3214.88 2026.5,3215C 2024.04,3212.75 2021.37,3210.75 2018.5,3209C 2031.39,3205.74 2044.39,3202.91 2057.5,3200.5C 2218.38,3171.86 2379.05,3142.86 2539.5,3113.5 Z M 1934.5,3170.5 C 1937.83,3170.26 1940.83,3171.1 1943.5,3173C 1947.88,3177.05 1952.55,3180.71 1957.5,3184C 1958.26,3185.51 1959.26,3186.85 1960.5,3188C 1964.21,3191.04 1968.21,3193.88 1972.5,3196.5C 1729.75,3240.18 1487.08,3284.18 1244.5,3328.5C 1241.17,3329.22 1237.84,3329.39 1234.5,3329C 1221.93,3318.79 1209.26,3309.12 1196.5,3300C 1442.66,3257.05 1688.66,3213.89 1934.5,3170.5 Z M 2042.5,3946.5 C 1952.91,3878.69 1863.91,3810.52 1775.5,3742C 1765.12,3733.96 1754.46,3726.3 1743.5,3719C 1742.26,3717.85 1741.26,3716.51 1740.5,3715C 1732.14,3708.65 1723.47,3702.65 1714.5,3697C 1711.57,3694.67 1708.9,3692 1706.5,3689C 1698.13,3682.63 1689.46,3676.63 1680.5,3671C 1678.1,3668 1675.43,3665.33 1672.5,3663C 1658.71,3653.92 1645.38,3644.26 1632.5,3634C 1628.05,3630.25 1623.72,3626.42 1619.5,3622.5C 1616.95,3620.78 1614.28,3619.28 1611.5,3618C 1541.01,3562.82 1470.01,3508.49 1398.5,3455C 1393.13,3450.96 1388.13,3446.62 1383.5,3442C 1374.56,3436.39 1365.89,3430.39 1357.5,3424C 1355.1,3421 1352.43,3418.33 1349.5,3416C 1339.28,3409.19 1329.61,3401.86 1320.5,3394C 1308.56,3386.05 1297.23,3377.38 1286.5,3368C 1276.47,3361.2 1266.8,3353.87 1257.5,3346C 1499.32,3301.21 1741.32,3257.38 1983.5,3214.5C 2002.19,3440.66 2020.85,3666.83 2039.5,3893C 2040.85,3910.82 2041.85,3928.65 2042.5,3946.5 Z M 2003.5,3221.5 C 2006.11,3223.61 2008.61,3225.94 2011,3228.5C 2012.1,3242.71 2013.6,3256.88 2015.5,3271C 2031.94,3470.8 2047.94,3670.63 2063.5,3870.5C 2065.43,3902.88 2067.59,3935.22 2070,3967.5C 2067.6,3967.04 2065.94,3965.71 2065,3963.5C 2064.34,3951.78 2063.17,3940.11 2061.5,3928.5C 2042.75,3696.84 2024.08,3465.17 2005.5,3233.5C 2005.16,3229.4 2004.49,3225.4 2003.5,3221.5 Z M 3196.5,3812.5 C 3200.5,3812.09 3204.17,3812.92 3207.5,3815C 3210.17,3818 3212.83,3821 3215.5,3824C 3216.5,3824.33 3217.5,3824.67 3218.5,3825C 3227.95,3833.88 3237.61,3842.54 3247.5,3851C 2887.21,3913.15 2526.88,3974.99 2166.5,4036.5C 2164.68,4036.65 2163.18,4037.32 2162,4038.5C 2148.06,4028.44 2134.56,4017.77 2121.5,4006.5C 2116.76,4004.04 2112.43,4001.04 2108.5,3997.5C 2107.61,3996.68 2107.28,3995.68 2107.5,3994.5C 2170.24,3985.52 2232.74,3975.19 2295,3963.5C 2305.17,3962.21 2315.34,3960.87 2325.5,3959.5C 2615.99,3910.62 2906.32,3861.62 3196.5,3812.5 Z"/></g>
</svg>
