<?xml version="1.0" encoding="UTF-8"?>
<!DOCTYPE svg PUBLIC "-//W3C//DTD SVG 1.1//EN" "http://www.w3.org/Graphics/SVG/1.1/DTD/svg11.dtd">
<svg xmlns="http://www.w3.org/2000/svg" version="1.1" width="512px" height="501px" style="shape-rendering:geometricPrecision; text-rendering:geometricPrecision; image-rendering:optimizeQuality; fill-rule:evenodd; clip-rule:evenodd" xmlns:xlink="http://www.w3.org/1999/xlink">
<g><path style="opacity:0.56" fill="#221f1f" d="M 274.5,105.5 C 275.552,105.351 276.552,105.517 277.5,106C 280.798,110.3 284.465,114.3 288.5,118C 315.5,136.333 342.5,154.667 369.5,173C 371.727,175.564 373.561,178.397 375,181.5C 379.476,216.116 383.143,250.783 386,285.5C 363.139,315.229 339.806,344.563 316,373.5C 280.097,379.9 244.264,386.233 208.5,392.5C 175.547,368.203 143.214,343.203 111.5,317.5C 113.939,309.352 116.272,301.186 118.5,293C 118.297,290.189 117.631,287.522 116.5,285C 117.58,279.618 117.246,274.284 115.5,269C 116.456,264.541 116.123,259.875 114.5,255C 115.097,253.938 115.43,252.772 115.5,251.5C 114.667,242.503 113.833,233.503 113,224.5C 111.437,223.275 110.27,221.775 109.5,220C 127.715,195.769 146.548,171.936 166,148.5C 169.635,141.643 171.135,134.476 170.5,127C 205.336,120 240.002,112.834 274.5,105.5 Z M 271.5,109.5 C 273.288,109.215 274.955,109.548 276.5,110.5C 290.694,130.195 304.694,150.028 318.5,170C 272.218,179.356 225.884,188.523 179.5,197.5C 178.719,196.271 178.219,194.938 178,193.5C 176.321,172.174 174.821,150.841 173.5,129.5C 206.362,123.195 239.029,116.528 271.5,109.5 Z M 294.5,126.5 C 318.859,142.438 343.026,158.772 367,175.5C 370.579,207.739 373.912,240.406 377,273.5C 376.097,272.299 374.931,271.465 373.5,271C 333.167,262.667 292.833,254.333 252.5,246C 279.336,224.659 306.002,203.159 332.5,181.5C 319.808,163.149 307.141,144.815 294.5,126.5 Z M 170.5,145.5 C 172.27,162.99 173.77,180.657 175,198.5C 175.374,199.416 175.874,200.25 176.5,201C 168.2,202.884 159.867,204.217 151.5,205C 158.335,185.329 164.668,165.496 170.5,145.5 Z M 162.5,157.5 C 158.282,173.351 153.448,189.351 148,205.5C 147.175,207.701 147.675,209.534 149.5,211C 148.005,214.817 146.505,218.65 145,222.5C 142.91,221.209 141.576,221.876 141,224.5C 132.151,222.696 123.318,220.696 114.5,218.5C 130.524,198.148 146.524,177.815 162.5,157.5 Z M 320.5,180.5 C 321.254,178.554 322.588,177.721 324.5,178C 323.529,179.481 322.196,180.315 320.5,180.5 Z M 312.5,178.5 C 313.873,178.343 315.207,178.51 316.5,179C 290.377,199.454 264.544,220.287 239,241.5C 237.612,225.511 236.445,209.511 235.5,193.5C 261.652,188.801 287.318,183.801 312.5,178.5 Z M 319.5,181.5 C 318.738,183.262 317.404,184.262 315.5,184.5C 316.262,182.738 317.596,181.738 319.5,181.5 Z M 325.5,182.5 C 324.738,184.262 323.404,185.262 321.5,185.5C 322.262,183.738 323.596,182.738 325.5,182.5 Z M 314.5,185.5 C 313.738,187.262 312.404,188.262 310.5,188.5C 311.262,186.738 312.596,185.738 314.5,185.5 Z M 320.5,186.5 C 319.738,188.262 318.404,189.262 316.5,189.5C 317.262,187.738 318.596,186.738 320.5,186.5 Z M 309.5,189.5 C 308.415,191.587 306.749,192.92 304.5,193.5C 305.585,191.413 307.251,190.08 309.5,189.5 Z M 229.5,190.5 C 232.988,190.989 232.822,191.989 229,193.5C 213.801,196.339 198.635,199.339 183.5,202.5C 182.263,202.444 181.263,201.944 180.5,201C 196.926,197.416 213.259,193.916 229.5,190.5 Z M 315.5,190.5 C 314.738,192.262 313.404,193.262 311.5,193.5C 312.262,191.738 313.596,190.738 315.5,190.5 Z M 303.5,194.5 C 302.738,196.262 301.404,197.262 299.5,197.5C 300.262,195.738 301.596,194.738 303.5,194.5 Z M 310.5,194.5 C 309.738,196.262 308.404,197.262 306.5,197.5C 307.262,195.738 308.596,194.738 310.5,194.5 Z M 229.5,196.5 C 230.5,196.5 231.5,196.5 232.5,196.5C 231.532,201.277 231.866,206.111 233.5,211C 233.355,211.772 233.022,212.439 232.5,213C 234.076,221.749 234.91,230.582 235,239.5C 218.926,235.751 202.759,232.251 186.5,229C 184.911,221.285 183.911,213.451 183.5,205.5C 199.344,202.93 214.677,199.93 229.5,196.5 Z M 298.5,198.5 C 297.738,200.262 296.404,201.262 294.5,201.5C 295.262,199.738 296.596,198.738 298.5,198.5 Z M 305.5,198.5 C 304.738,200.262 303.404,201.262 301.5,201.5C 302.262,199.738 303.596,198.738 305.5,198.5 Z M 293.5,202.5 C 292.738,204.262 291.404,205.262 289.5,205.5C 290.262,203.738 291.596,202.738 293.5,202.5 Z M 300.5,202.5 C 299.738,204.262 298.404,205.262 296.5,205.5C 297.262,203.738 298.596,202.738 300.5,202.5 Z M 174.5,204.5 C 176.458,204.908 178.458,205.241 180.5,205.5C 180.291,206.086 179.957,206.586 179.5,207C 181.018,213.705 181.684,220.538 181.5,227.5C 179.94,227.519 178.44,227.852 177,228.5C 167.345,226.701 157.845,224.534 148.5,222C 150.945,217.832 152.278,213.332 152.5,208.5C 160.073,207.795 167.407,206.462 174.5,204.5 Z M 288.5,206.5 C 287.738,208.262 286.404,209.262 284.5,209.5C 285.262,207.738 286.596,206.738 288.5,206.5 Z M 295.5,206.5 C 294.738,208.262 293.404,209.262 291.5,209.5C 292.262,207.738 293.596,206.738 295.5,206.5 Z M 283.5,210.5 C 282.738,212.262 281.404,213.262 279.5,213.5C 280.262,211.738 281.596,210.738 283.5,210.5 Z M 290.5,210.5 C 289.738,212.262 288.404,213.262 286.5,213.5C 287.262,211.738 288.596,210.738 290.5,210.5 Z M 278.5,214.5 C 277.738,216.262 276.404,217.262 274.5,217.5C 275.262,215.738 276.596,214.738 278.5,214.5 Z M 273.5,218.5 C 272.738,220.262 271.404,221.262 269.5,221.5C 270.262,219.738 271.596,218.738 273.5,218.5 Z M 268.5,222.5 C 267.738,224.262 266.404,225.262 264.5,225.5C 265.262,223.738 266.596,222.738 268.5,222.5 Z M 116.5,225.5 C 123.447,227.153 130.447,228.653 137.5,230C 138.022,230.561 138.355,231.228 138.5,232C 133.051,249.681 127.218,267.181 121,284.5C 119.779,264.795 118.279,245.128 116.5,225.5 Z M 144.5,225.5 C 155.453,227.757 166.453,229.757 177.5,231.5C 179.415,254.315 181.415,277.148 183.5,300C 183.167,301.167 182.833,302.333 182.5,303.5C 160.178,308.165 137.845,311.832 115.5,314.5C 125.017,284.756 134.684,255.09 144.5,225.5 Z M 262.5,227.5 C 261.738,229.262 260.404,230.262 258.5,230.5C 259.262,228.738 260.596,227.738 262.5,227.5 Z M 181.5,231.5 C 197.033,234.658 212.2,237.991 227,241.5C 228.626,241.146 230.459,241.146 232.5,241.5C 233.792,258.418 235.458,275.085 237.5,291.5C 220.646,294.891 203.812,298.225 187,301.5C 184.725,278.196 182.891,254.863 181.5,231.5 Z M 257.5,231.5 C 256.738,233.262 255.404,234.262 253.5,234.5C 254.262,232.738 255.596,231.738 257.5,231.5 Z M 252.5,235.5 C 251.738,237.262 250.404,238.262 248.5,238.5C 249.262,236.738 250.596,235.738 252.5,235.5 Z M 247.5,239.5 C 246.738,241.262 245.404,242.262 243.5,242.5C 244.262,240.738 245.596,239.738 247.5,239.5 Z M 378.5,245.5 C 380.595,256.518 381.762,267.518 382,278.5C 380.042,267.588 378.875,256.588 378.5,245.5 Z M 236.5,246.5 C 268.262,252.638 300.262,259.138 332.5,266C 333.348,269.256 334.015,272.589 334.5,276C 334.245,277.326 333.578,278.326 332.5,279C 303.093,284.182 273.759,289.682 244.5,295.5C 241.739,294.501 240.406,292.501 240.5,289.5C 238.926,275.183 237.592,260.85 236.5,246.5 Z M 336.5,266.5 C 346.084,268.851 355.75,271.018 365.5,273C 356.206,274.827 346.873,276.327 337.5,277.5C 337.577,273.785 337.244,270.119 336.5,266.5 Z M 369.5,280.5 C 371.199,280.34 372.866,280.506 374.5,281C 352.5,309 330.5,337 308.5,365C 273.21,371.16 237.876,376.993 202.5,382.5C 200.551,359.157 198.551,335.824 196.5,312.5C 254.93,302.204 312.596,291.537 369.5,280.5 Z M 378.5,280.5 C 383.002,282.484 383.502,285.151 380,288.5C 358.333,315.5 336.667,342.5 315,369.5C 312.945,368.328 312.278,366.661 313,364.5C 335.048,336.624 356.881,308.624 378.5,280.5 Z M 234.5,295.5 C 237.346,295.03 239.679,295.863 241.5,298C 225.271,301.046 209.104,304.213 193,307.5C 191.978,306.646 191.145,305.646 190.5,304.5C 205.283,301.477 219.95,298.477 234.5,295.5 Z M 183.5,306.5 C 184.978,306.238 186.311,306.571 187.5,307.5C 165.043,311.993 142.543,316.327 120,320.5C 118.941,320.37 118.108,319.87 117.5,319C 134.717,315.273 151.55,312.44 168,310.5C 173.248,309.106 178.415,307.773 183.5,306.5 Z M 189.5,310.5 C 190.796,316.666 191.796,323 192.5,329.5C 192.291,330.086 191.957,330.586 191.5,331C 193.669,347.269 195.169,363.436 196,379.5C 171.976,360.642 147.809,341.975 123.5,323.5C 140.754,319.654 157.921,316.654 175,314.5C 179.883,313.001 184.716,311.668 189.5,310.5 Z M 306.5,368.5 C 311.652,369.64 311.652,370.806 306.5,372C 274.324,377.446 242.157,382.946 210,388.5C 207.968,388.142 206.134,387.308 204.5,386C 238.47,380.852 272.47,375.019 306.5,368.5 Z"/></g>
</svg>
