<?xml version="1.0" encoding="UTF-8"?>
<svg id="Calque_1" data-name="Calque 1" xmlns="http://www.w3.org/2000/svg" viewBox="0 0 1280 447">
  <defs>
    <style>
      .cls-1 {
        fill: #221f20;
      }
    </style>
  </defs>
  <path class="cls-1" d="M179.07,242.83c0-10.92,1.85-20.88,5.55-29.87,3.7-8.99,8.63-16.69,14.8-23.13,6.17-6.43,13.3-11.45,21.41-15.07,8.1-3.61,16.47-5.42,25.11-5.42,9.52,0,18.11,1.54,25.77,4.63,7.67,3.08,14.41,7.45,20.22,13.08v-14.8h34.36v141.41h-29.07l-5.29-15.07c-5.81,5.64-12.56,10.04-20.22,13.22s-16.26,4.76-25.77,4.76c-8.64,0-17.01-1.81-25.11-5.42-8.11-3.61-15.24-8.68-21.41-15.2-6.17-6.52-11.1-14.31-14.8-23.39-3.7-9.07-5.55-18.99-5.55-29.74ZM213.44,242.83c0,5.99.92,11.54,2.77,16.65,1.85,5.11,4.49,9.56,7.93,13.35,3.44,3.79,7.57,6.74,12.42,8.85,4.84,2.11,10.26,3.17,16.26,3.17s11.14-1.06,15.99-3.17c4.84-2.11,8.99-5.06,12.42-8.85,3.44-3.79,6.08-8.24,7.93-13.35,1.85-5.11,2.78-10.66,2.78-16.65s-.92-11.27-2.78-16.39c-1.85-5.11-4.49-9.56-7.93-13.35-3.44-3.79-7.58-6.74-12.42-8.85-4.85-2.11-10.18-3.17-15.99-3.17s-11.41,1.06-16.26,3.17c-4.85,2.11-8.99,5.07-12.42,8.85-3.44,3.79-6.08,8.24-7.93,13.35-1.85,5.11-2.77,10.57-2.77,16.39Z"/>
  <path class="cls-1" d="M358.01,115.43h34.36v198.24h-34.36V115.43Z"/>
  <path class="cls-1" d="M416.16,172.26h21.15v-39.65h34.36v39.65h54.71v26.43h-54.71v63.17c0,9.34,1.81,15.73,5.42,19.16,3.61,3.44,8.59,5.15,14.93,5.15,5.64,0,12.25-.97,19.82-2.91,7.57-1.94,15.86-4.05,24.85-6.34v33.04c-18.15,4.4-33.92,6.61-47.31,6.61-18.5,0-31.81-4.58-39.91-13.74-8.11-9.16-12.16-22.82-12.16-40.97v-63.17h-21.15v-26.43Z"/>
  <path class="cls-1" d="M549.91,243.09c0-11.1,1.76-21.15,5.29-30.13,3.52-8.99,8.5-16.74,14.93-23.26,6.43-6.52,14.14-11.54,23.13-15.07,8.99-3.52,19.03-5.29,30.13-5.29s20.92,1.76,30,5.29c9.07,3.53,16.87,8.55,23.39,15.07,6.52,6.52,11.54,14.27,15.07,23.26,3.52,8.99,5.29,19.03,5.29,30.13s-1.76,21.15-5.29,30.13c-3.53,8.99-8.55,16.7-15.07,23.13-6.52,6.43-14.32,11.41-23.39,14.93-9.08,3.52-19.08,5.29-30,5.29s-21.15-1.76-30.13-5.29c-8.99-3.52-16.7-8.5-23.13-14.93-6.43-6.43-11.41-14.14-14.93-23.13-3.53-8.99-5.29-19.03-5.29-30.13ZM583.74,243.09c0,5.99.97,11.54,2.91,16.65,1.94,5.11,4.63,9.56,8.06,13.35,3.44,3.79,7.57,6.79,12.42,8.99,4.84,2.21,10.26,3.3,16.26,3.3s11.41-1.1,16.26-3.3c4.84-2.2,8.99-5.2,12.42-8.99,3.44-3.79,6.08-8.24,7.93-13.35,1.85-5.11,2.78-10.66,2.78-16.65s-.92-11.58-2.78-16.78c-1.85-5.2-4.49-9.69-7.93-13.48-3.44-3.79-7.58-6.74-12.42-8.85-4.85-2.11-10.27-3.17-16.26-3.17s-11.41,1.06-16.26,3.17c-4.85,2.11-8.99,5.07-12.42,8.85-3.44,3.79-6.12,8.28-8.06,13.48-1.94,5.2-2.91,10.8-2.91,16.78Z"/>
  <path class="cls-1" d="M820.3,203.71c-7.58-2.99-15.51-4.49-23.79-4.49-5.29,0-10.44.66-15.46,1.98-5.02,1.32-9.43,3.4-13.22,6.21-3.79,2.82-6.83,6.39-9.12,10.71-2.29,4.32-3.44,9.38-3.44,15.2v80.35h-34.36v-141.41h29.07l5.29,20.35c2.46-4.4,5.55-8.1,9.25-11.1,3.7-2.99,7.71-5.37,12.03-7.14,4.32-1.76,8.9-3.04,13.74-3.83,4.84-.79,9.56-1.19,14.14-1.19,2.82,0,5.55.13,8.19.4s5.2.57,7.67.93v33.04Z"/>
  <path class="cls-1" d="M904.62,169.35c9.69,0,18.59,1.37,26.7,4.1,8.1,2.73,15.29,6.57,21.54,11.5,6.25,4.94,11.45,10.93,15.59,17.97,4.14,7.05,7,14.98,8.59,23.79.88,4.23,1.32,8.59,1.32,13.08v13.35h-111.81c1.06,4.41,2.82,8.55,5.29,12.42,2.47,3.88,5.46,7.23,8.99,10.04,3.52,2.82,7.49,5.07,11.89,6.74,4.4,1.68,9.07,2.51,14.01,2.51,9.87,0,17.93-1.76,24.18-5.29,6.25-3.52,11.41-8.1,15.46-13.74l27.75,15.59c-5.99,11.1-14.93,19.74-26.83,25.9-11.89,6.17-25.24,9.25-40.04,9.25-11.1,0-21.32-1.76-30.66-5.29-9.34-3.52-17.4-8.54-24.18-15.07-6.79-6.52-12.07-14.27-15.86-23.26-3.79-8.99-5.68-19.03-5.68-30.13s1.76-20.92,5.29-30c3.52-9.07,8.54-16.83,15.07-23.26,6.52-6.43,14.27-11.41,23.26-14.93,8.99-3.52,19.03-5.29,30.13-5.29ZM942.68,226.71c-2.64-7.22-7.09-13.3-13.35-18.24-6.26-4.93-14.67-7.4-25.24-7.4-8.81,0-16.35,2.47-22.6,7.4-6.26,4.94-10.7,11.01-13.35,18.24h74.54Z"/>
  <path class="cls-1" d="M1111.84,212.17c-2.82-2.11-6.21-3.96-10.18-5.55-3.96-1.59-8.24-2.86-12.82-3.83-4.58-.97-9.25-1.72-14.01-2.25s-9.43-.79-14.01-.79c-4.23,0-8.19.22-11.89.66-3.7.44-6.87,1.1-9.52,1.98-2.82.88-4.94,2.07-6.34,3.57-1.41,1.5-2.16,3.08-2.25,4.76-.09,1.68.44,3.26,1.59,4.76,1.14,1.5,2.78,2.78,4.89,3.83,4.23,1.94,9.73,3.53,16.52,4.76,6.78,1.23,13.79,2.51,21.01,3.83,7.22,1.32,14.31,2.82,21.28,4.49,6.96,1.68,12.64,3.92,17.05,6.74,7.22,4.41,12.33,10.04,15.33,16.92,2.99,6.87,4.1,13.84,3.3,20.88-.79,7.05-3.44,13.57-7.93,19.56-4.49,5.99-10.7,10.4-18.63,13.22-5.82,2.11-12.6,3.79-20.35,5.02-7.76,1.23-15.86,1.85-24.32,1.85-6.34,0-12.65-.36-18.9-1.06-6.26-.71-12.25-1.85-17.97-3.44-5.73-1.59-11.1-3.61-16.12-6.08-5.02-2.47-9.38-5.46-13.08-8.99l12.95-27.22c2.99,2.64,6.83,4.89,11.5,6.74,4.67,1.85,9.73,3.44,15.2,4.76,5.46,1.32,11.1,2.29,16.92,2.91,5.82.62,11.37.92,16.65.92s9.65-.26,13.61-.79c3.96-.53,7.18-1.41,9.65-2.64,4.76-2.47,7.09-4.98,7-7.53-.09-2.55-1.9-4.89-5.42-7-4.06-2.47-9.65-4.4-16.78-5.81-7.14-1.41-14.67-2.82-22.6-4.23-7.93-1.41-15.69-3.13-23.26-5.15-7.58-2.02-13.74-4.89-18.5-8.59-5.64-4.4-9.69-9.91-12.16-16.52-2.47-6.61-3.35-13.26-2.64-19.96.7-6.69,3.04-12.91,7-18.63,3.96-5.72,9.47-9.91,16.52-12.56,5.64-2.11,12.03-3.74,19.16-4.89,7.14-1.14,14.67-1.72,22.6-1.72,5.82,0,11.63.35,17.45,1.06,5.82.71,11.41,1.72,16.78,3.04,5.37,1.32,10.48,3.04,15.33,5.15,4.84,2.11,9.12,4.67,12.82,7.67l-12.42,26.17Z"/>
</svg>